<svg width="24" height="25" viewBox="0 0 24 25" fill="none" xmlns="http://www.w3.org/2000/svg">
<g clip-path="url(#clip0_0_268)">
<path d="M12 0.5C9.62661 0.5 7.30654 1.20379 5.33315 2.52236C3.35976 3.84094 1.82169 5.71509 0.913436 7.9078C0.00518417 10.1005 -0.232456 12.5133 0.230567 14.8411C0.693589 17.1689 1.83648 19.3071 3.51471 20.9853C5.19294 22.6635 7.33113 23.8064 9.65891 24.2694C11.9867 24.7324 14.3995 24.4948 16.5922 23.5866C18.7849 22.6783 20.659 21.1402 21.9776 19.1668C23.2962 17.1935 24 14.8734 24 12.5C24 9.3174 22.7357 6.26515 20.4853 4.01472C18.2348 1.76428 15.1826 0.5 12 0.5V0.5ZM18.82 9.605L11.29 18.145C11.1685 18.2819 11.0211 18.3935 10.8564 18.4733C10.6916 18.5531 10.5127 18.5995 10.33 18.61H10.24C9.89892 18.6121 9.56924 18.4874 9.31499 18.26L5.28499 14.685C5.00784 14.439 4.83976 14.093 4.81772 13.7231C4.79569 13.3532 4.9215 12.9897 5.16749 12.7125C5.41348 12.4353 5.75949 12.2673 6.12941 12.2452C6.49932 12.2232 6.86284 12.349 7.13999 12.595L10.14 15.24L16.745 7.74C16.9903 7.46219 17.336 7.2932 17.7059 7.27023C18.0758 7.24726 18.4397 7.37217 18.7175 7.6175C18.9953 7.86282 19.1643 8.20846 19.1873 8.57838C19.2102 8.9483 19.0853 9.31219 18.84 9.59L18.82 9.605Z" fill="#F0B70D"/>
</g>
<defs>
<clipPath id="clip0_0_268">
<rect width="24" height="24" fill="white" transform="translate(0 0.5)"/>
</clipPath>
</defs>
</svg>
